<?xml version="1.0" encoding="UTF-8"?>
<svg width="400" height="400" version="1.1" viewBox="0 0 400 400" xmlns="http://www.w3.org/2000/svg">
 <rect width="400" height="400" fill="#f0f2f5"/>
 <g>
  <circle cx="200" cy="200" r="120" fill="#e2e8f0"/>
  <path d="M200 100c-55.23 0-100 44.77-100 100s44.77 100 100 100 100-44.77 100-100-44.77-100-100-100zm0 40c33.14 0 60 26.86 60 60s-26.86 60-60 60-60-26.86-60-60 26.86-60 60-60z" fill="#64748b"/>
  <circle cx="200" cy="160" r="30" fill="#64748b"/>
  <path d="M260 260c-16.56-20-37.77-30-60-30s-43.44 10-60 30c15.27 18.91 37.34 30 60 30s44.73-11.09 60-30z" fill="#64748b"/>
 </g>
</svg>